<svg width="30" height="30" xmlns="http://www.w3.org/2000/svg">

 <g>
  <title>background</title>
  <rect fill="none" id="canvas_background" height="402" width="582" y="-1" x="-1"/>
 </g>
 <g>
  <title>Layer 1</title>
  <path id="svg_1" d="m30,15c0,8.284 -6.716,15 -15,15c-8.284,0 -15,-6.716 -15,-15c0,-8.284 6.716,-15 15,-15c8.284,0 15,6.716 15,15zm-15,-8c-2.172,0 -2.445,0.01 -3.298,0.048c-0.852,0.04 -1.433,0.174 -1.942,0.372a3.917,3.917 0 0 0 -1.417,0.922a3.927,3.927 0 0 0 -0.923,1.418c-0.198,0.51 -0.333,1.09 -0.372,1.942c-0.038,0.853 -0.048,1.125 -0.048,3.298s0.01,2.445 0.048,3.298c0.04,0.852 0.174,1.433 0.372,1.942c0.205,0.526 0.478,0.972 0.923,1.417c0.444,0.445 0.89,0.719 1.416,0.923c0.51,0.198 1.09,0.333 1.942,0.372c0.854,0.038 1.126,0.048 3.299,0.048s2.444,-0.01 3.298,-0.048c0.851,-0.04 1.433,-0.174 1.942,-0.372a3.914,3.914 0 0 0 1.417,-0.923c0.445,-0.445 0.718,-0.891 0.923,-1.417c0.197,-0.51 0.332,-1.09 0.372,-1.942c0.038,-0.853 0.048,-1.125 0.048,-3.298s-0.01,-2.445 -0.048,-3.299c-0.04,-0.851 -0.175,-1.433 -0.372,-1.941a3.926,3.926 0 0 0 -0.923,-1.418a3.91,3.91 0 0 0 -1.417,-0.922c-0.51,-0.198 -1.092,-0.333 -1.943,-0.372c-0.854,-0.038 -1.125,-0.048 -3.299,-0.048l0.003,0l-0.001,0zm-0.716,1.442l0.718,0c2.136,0 2.389,0.007 3.232,0.046c0.78,0.035 1.204,0.166 1.486,0.275c0.373,0.145 0.64,0.319 0.92,0.598c0.28,0.28 0.452,0.547 0.598,0.92c0.11,0.282 0.24,0.705 0.275,1.486c0.039,0.843 0.047,1.096 0.047,3.231s-0.008,2.389 -0.047,3.232c-0.035,0.78 -0.166,1.203 -0.275,1.485c-0.145,0.373 -0.319,0.639 -0.599,0.919c-0.28,0.28 -0.546,0.453 -0.92,0.598c-0.28,0.11 -0.705,0.24 -1.485,0.276c-0.843,0.038 -1.096,0.047 -3.232,0.047s-2.39,-0.009 -3.233,-0.047c-0.78,-0.036 -1.203,-0.166 -1.485,-0.276a2.478,2.478 0 0 1 -0.92,-0.598a2.48,2.48 0 0 1 -0.6,-0.92c-0.109,-0.281 -0.24,-0.705 -0.275,-1.485c-0.038,-0.843 -0.046,-1.096 -0.046,-3.233c0,-2.136 0.008,-2.388 0.046,-3.232c0.036,-0.78 0.166,-1.203 0.276,-1.485c0.145,-0.373 0.319,-0.64 0.599,-0.92c0.28,-0.28 0.546,-0.453 0.92,-0.598c0.282,-0.11 0.705,-0.24 1.485,-0.276c0.738,-0.034 1.024,-0.044 2.515,-0.045l0,0.002zm4.988,1.328a0.96,0.96 0 1 0 0,1.92a0.96,0.96 0 0 0 0,-1.92zm-4.27,1.122a4.109,4.109 0 1 0 0,8.217a4.109,4.109 0 0 0 0,-8.217zm0,1.441a2.667,2.667 0 1 1 0,5.334a2.667,2.667 0 0 1 0,-5.334z" fill-rule="evenodd" fill="#64cae1"/>
 </g>
</svg>