<svg width="30" height="30" xmlns="http://www.w3.org/2000/svg">

 <g>
  <title>background</title>
  <rect fill="none" id="canvas_background" height="402" width="582" y="-1" x="-1"/>
 </g>
 <g>
  <title>Layer 1</title>
  <path id="svg_1" d="m14.925373,30c-8.284,0 -15,-6.716 -15,-15c0,-8.284 6.716,-15 15,-15c8.284,0 15,6.716 15,15c0,8.284 -6.716,15 -15,15zm2.718,-15.015l0.275,-2.815l-2.35,0l0,-1.658c0,-0.621 0.389,-0.767 0.666,-0.767l1.691,0l0,-2.735l-2.33,-0.01c-2.586,0 -3.174,2.041 -3.174,3.345l0,1.823l-1.496,0l0,2.817l1.496,0l0,8.015l3.146,0l0,-8.015l2.076,0z" fill-rule="evenodd" fill="#64cae1"/>
 </g>
</svg>