<?xml version="1.0"?>
<svg width="30" height="30" xmlns="http://www.w3.org/2000/svg" xmlns:svg="http://www.w3.org/2000/svg">
 <g class="layer">
  <title>Layer 1</title>
  <path d="m30,15c0,8.28 -6.72,15 -15,15c-8.28,0 -15,-6.72 -15,-15c0,-8.28 6.72,-15 15,-15c8.28,0 15,6.72 15,15zm-7,0.63c0,-2.9 -1.59,-4.25 -3.7,-4.25c-1.71,0 -2.47,0.92 -2.9,1.57l0,0.02l-0.02,0c0.01,-0.01 0.01,-0.01 0.02,-0.02l0,-1.34l-3.22,0c0.05,0.88 0,9.44 0,9.44l3.22,0l0,-5.27c0,-0.29 0.02,-0.57 0.11,-0.77c0.23,-0.56 0.76,-1.15 1.65,-1.15c1.16,0 1.62,0.87 1.62,2.14l0,5.05l3.22,0l0,-5.41l0,-0.01zm-13.18,-8.58c-1.1,0 -1.82,0.71 -1.82,1.64c0,0.9 0.7,1.63 1.78,1.63l0.02,0c1.12,0 1.82,-0.73 1.82,-1.63c-0.02,-0.93 -0.7,-1.64 -1.8,-1.64zm-1.63,14l3.22,0l0,-9.44l-3.22,0l0,9.44z" fill="#000000" fill-rule="evenodd" id="svg_1"/>
 </g>
</svg>